<svg width="24" height="25" viewBox="0 0 24 25" fill="none" xmlns="http://www.w3.org/2000/svg">
<path d="M10 21.7706H5C3.89543 21.7706 3 20.8752 3 19.7706V12.8299C3 12.3262 3.19005 11.841 3.53218 11.4714L10.5322 3.90803C11.3238 3.05268 12.6762 3.05268 13.4678 3.90803L20.4678 11.4714C20.8099 11.841 21 12.3262 21 12.8299V19.7706C21 20.8752 20.1046 21.7706 19 21.7706H14M10 21.7706V16.129C10 15.8529 10.2239 15.629 10.5 15.629H13.5C13.7761 15.629 14 15.8529 14 16.129V21.7706M10 21.7706H14" stroke="#626264" stroke-width="1.5"/>
</svg>
