<svg width="26" height="29" viewBox="0 0 26 29" fill="none" xmlns="http://www.w3.org/2000/svg">
<path d="M22.6892 14.6562V28.3122H3.41016V14.6562" stroke="black" stroke-opacity="0.7" stroke-linecap="round" stroke-linejoin="round"/>
<path d="M25.0988 7.82822H1V14.6562H25.0988V7.82822Z" stroke="black" stroke-opacity="0.7" stroke-linecap="round" stroke-linejoin="round"/>
<path d="M13.0498 28.3122V7.82822" stroke="black" stroke-opacity="0.7" stroke-linecap="round" stroke-linejoin="round"/>
<path d="M13.0498 7.82791H7.62759C6.82866 7.82791 6.06246 7.46822 5.49753 6.82797C4.93261 6.18772 4.61523 5.31936 4.61523 4.41391C4.61523 3.50846 4.93261 2.6401 5.49753 1.99985C6.06246 1.3596 6.82866 0.999908 7.62759 0.999908C11.8449 0.999908 13.0498 7.82791 13.0498 7.82791Z" stroke="black" stroke-opacity="0.7" stroke-linecap="round" stroke-linejoin="round"/>
<path d="M13.0498 7.82791H18.472C19.271 7.82791 20.0372 7.46822 20.6021 6.82797C21.167 6.18772 21.4844 5.31936 21.4844 4.41391C21.4844 3.50846 21.167 2.6401 20.6021 1.99985C20.0372 1.3596 19.271 0.999908 18.472 0.999908C14.2547 0.999908 13.0498 7.82791 13.0498 7.82791Z" stroke="black" stroke-opacity="0.7" stroke-linecap="round" stroke-linejoin="round"/>
</svg>
